<svg xmlns="http://www.w3.org/2000/svg" width="1000" height="600" viewBox="0 0 1000 600"><defs><style>.a{fill:#919388;}</style></defs><path class="a" d="M373.69,293.15h2.62v-9h-2.62Zm.73-8.27h1.17v7.54h-1.17Z"/><path class="a" d="M402.55,326.93h6.26v.53H413v-11.6h-4.21v.53h-6.26v-.53h-4.21v11.62h4.21Zm6.26-9.85v9.11h-6.26V317.1Z"/><path class="a" d="M422,326.93h6.25v.53h4.22v-11.6H428.2v.53H422v-.53h-4.22v11.62H422Zm6.25-9.85v9.11H422V317.1Z"/><path class="a" d="M441.35,326.93h6.25v.53h4.22v-11.6H447.6v.53h-6.25v-.53h-4.22v11.62h4.22Zm6.25-9.85v9.11h-6.25V317.1Z"/><path class="a" d="M402.55,347h6.26v.53H413V335.91h-4.21v.52h-6.26v-.53h-4.21v11.63h4.21Zm6.26-9.85v9.13h-6.26v-9.12Z"/><path class="a" d="M422,347h6.25v.53h4.22V335.91H428.2v.52H422v-.53h-4.22v11.63H422Zm6.25-9.85v9.13H422v-9.12Z"/><path class="a" d="M441.35,347h6.25v.53h4.22V335.91H447.6v.52h-6.25v-.53h-4.22v11.63h4.22Zm6.25-9.85v9.13h-6.25v-9.12Z"/><path class="a" d="M368,293.15h2.62v-9H368Zm.73-8.27h1.16v7.54h-1.16Z"/><path class="a" d="M266.55,239.46h21.67V212.55H266.55Zm.73-26.17H287.5v25.44H267.28Z"/><path class="a" d="M268.25,237.82h18.28V214.19H268.25Zm5.4-6.26V214.91h4.51v16.65Zm0,5.54v-4.8h12.16v4.81Zm12.16-5.54h-6.93V214.91h6.93ZM269,214.91h3.94V237.1H269Z"/><path class="a" d="M238.42,239.46h21.67V212.55H238.42Zm.73-26.17h20.21v25.44H239.15Z"/><path class="a" d="M240.11,237.82H258.4V214.19H240.11Zm5.4-6.26V214.91H250v16.65Zm0,5.54v-4.8h12.16v4.81Zm12.16-5.54h-6.92V214.91h6.92Zm-16.83-16.65h3.94V237.1h-3.94Z"/><path class="a" d="M210.29,239.46H232V212.55H210.29Zm.72-26.17h20.22v25.44H211Z"/><path class="a" d="M212,237.82h18.29V214.19H212Zm5.4-6.26V214.91h4.5v16.65Zm0,5.54v-4.8h12.16v4.81Zm12.16-5.54h-6.93V214.91h6.93Zm-16.83-16.65h3.94V237.1h-3.94Z"/><path class="a" d="M182.16,239.46h21.67V212.55H182.16Zm.73-26.17H203.1v25.44H182.89Z"/><path class="a" d="M183.85,237.82h18.29V214.19H183.85Zm5.39-6.26V214.91h4.51v16.65Zm0,5.54v-4.8h12.17v4.81Zm12.17-5.54h-6.92V214.91h6.93Zm-16.83-16.65h3.92V237.1h-3.93Z"/><path class="a" d="M154,212.56H142.87v26.89H175.7v-26.9H154Zm0,26.17H143.6V213.28H154Zm.74,0V213.29H175v25.44Z"/><path class="a" d="M155.72,237.82H174V214.19H155.72Zm5.4-6.26V214.91h4.51v16.65Zm0,5.54v-4.8h12.17v4.81Zm12.17-5.54h-6.94V214.91h6.93Zm-16.83-16.65h3.93V237.1h-3.93Z"/><path class="a" d="M284.12,282.05v26.42h20.43V282.05Zm19.68,19.48H296V282.78h7.87Zm-13.73-18.75h5.13v18.75h-5.13Zm-5.24,0h4.51v25h-4.49Zm5.24,25v-5.49H303.8v5.49Z"/><path class="a" d="M250.76,310.29H275V280.21H250.76Zm.73-29.35h22.76v28.62H251.49Z"/><path class="a" d="M252.66,308.47h20.42V282.05H252.66Zm6-6.94V282.78h5.14v18.75Zm0,6.21v-5.49h13.75v5.49Zm13.75-6.21h-7.88V282.78h7.88Zm-19-18.75h4.51v25h-4.51Z"/><path class="a" d="M219.64,310.31h23.9v-30.1H219.31v30.08h.35ZM220,281h22.77v28.62H220Z"/><path class="a" d="M221.2,308.47h20.42V282.05H221.2Zm6-6.94V282.78h5.14v18.75Zm0,6.21v-5.49h13.73v5.49Zm13.73-6.21H233V282.78h7.86Zm-19-18.75h4.51v25h-4.51Z"/><path class="a" d="M188.18,310.31h23.89v-30.1H187.84v30.08h.34Zm.38-29.36h22.77v28.62H188.56Z"/><path class="a" d="M189.74,308.47h20.42V282.05H189.74Zm6-6.94V282.78h5.13v18.75Zm0,6.21v-5.49h13.73v5.49Zm13.73-6.21h-7.86V282.78h7.86Zm-19-18.75H195v25h-4.51Z"/><path class="a" d="M158.27,308.47H178.7V282.05H158.27Zm6-6.94V282.78h5.13v18.75Zm0,6.21v-5.49H178v5.49ZM178,301.53H170.1V282.78H178Zm-19-18.75h4.51v25H159Z"/><path class="a" d="M157.1,310.31h23.49v-30.1H143.86v30.1Zm0-29.36h22.76v28.62H157.1Zm-12.51,0h11.78V309.6H144.59Z"/><path class="a" d="M737.61,310.33H761.5V280.22H737.28v30.1h.33ZM738,281h22.77v28.62H738Z"/><path class="a" d="M739.17,308.48H759.6V282.07H739.17Zm6-6.93V282.79h5.14v18.76Zm0,6.21v-5.48h13.73v5.48Zm13.73-6.21H751V282.79h7.86Zm-19-18.76h4.5v25h-4.5Z"/><path class="a" d="M705.8,310.32H730v-30.1H705.8Zm.73-29.35h22.76v28.62H706.53Z"/><path class="a" d="M707.7,308.48h20.43V282.07H707.7Zm6-6.93V282.79h5.14v18.76Zm0,6.21v-5.48H727.4v5.48Zm13.74-6.21h-7.86V282.79h7.86Zm-19-18.76h4.51v25h-4.51Z"/><path class="a" d="M698.2,310.33h.36V280.22H674.34v30.1H698.2ZM675.07,281h22.76v28.62H675.07Z"/><path class="a" d="M676.24,308.48h20.42V282.07H676.24Zm6-6.93V282.79h5.14v18.76Zm0,6.21v-5.48H696v5.48ZM696,301.55H688.1V282.79H696Zm-19-18.76h4.51v25H677Z"/><path class="a" d="M666.74,310.33h.36V280.22H642.9v30.1h23.84ZM643.61,281h22.76v28.62H643.61Z"/><path class="a" d="M644.78,308.48H665.2V282.07H644.78Zm6-6.93V282.79h5.14v18.76Zm0,6.21v-5.48h13.74v5.48Zm13.74-6.21h-7.86V282.79h7.86Zm-19-18.76H650v25h-4.5Z"/><path class="a" d="M633.74,308.48V282.07H613.32v26.41Zm-14.46-6.93V282.79h5.13v18.76Zm0,6.21v-5.48H633v5.48ZM633,301.55h-7.86V282.79H633Zm-19-18.76h4.5v25h-4.5Z"/><path class="a" d="M832.19,310.33h23.89V280.22H831.86v30.1h.33Zm.38-29.36h22.77v28.62H832.57Z"/><path class="a" d="M833.73,308.48h20.43V282.07H833.73Zm6-6.93V282.79h5.14v18.76Zm0,6.21v-5.48h13.74v5.48Zm13.74-6.21H845.6V282.79h7.86Zm-19-18.76H839v25h-4.51Z"/><path class="a" d="M800.73,310.33h23.89V280.22H800.4v30.1h.33Zm.38-29.36h22.78v28.62H801.13Z"/><path class="a" d="M802.28,308.48h20.43V282.07H802.28Zm6-6.93V282.79h5.14v18.76Zm0,6.21v-5.48H822v5.48ZM822,301.55h-7.86V282.79H822Zm-19-18.76h4.51v25H803Z"/><path class="a" d="M769.27,310.33h23.89V280.22H768.94v30.1h.33Zm.38-29.36h22.76v28.62H769.65Z"/><path class="a" d="M770.84,308.48h20.42V282.07H770.84Zm6-6.93V282.79h5.14v18.76Zm0,6.21v-5.48h13.72v5.48Zm13.72-6.21h-7.86V282.79h7.86Zm-19-18.76h4.51v25h-4.51Z"/><path class="a" d="M693.7,272.9h23.9V242.79H693.38v30.1h.32Zm.39-29.36h22.76v28.61H694.09Z"/><path class="a" d="M695.26,271.05h20.42V244.64H695.26Zm6-6.93V245.37h5.14v18.75Zm0,6.21v-5.46H715v5.48ZM715,264.12h-7.88V245.37h7.86Zm-19-18.75h4.5v25H696Z"/><path class="a" d="M662.24,272.9h23.89V242.79H661.92v30.1h.32Zm.39-29.36h22.76v28.61H662.63Z"/><path class="a" d="M663.8,271.05h20.42V244.64H663.8Zm6-6.93V245.37h5.13v18.75Zm0,6.21v-5.46h13.73v5.48Zm13.73-6.21h-7.86V245.37h7.86Zm-19-18.75H669v25h-4.5Z"/><path class="a" d="M630.78,272.9h23.89V242.79H630.46v30.1h.32Zm.39-29.36h22.76v28.61H631.17Z"/><path class="a" d="M632.34,271.05h20.4V244.64H632.32Zm6-6.93V245.37h5.13v18.75Zm0,6.21v-5.46H652v5.48ZM652,264.12h-7.84V245.37h7.86Zm-19-18.75h4.51v25h-4.51Z"/><path class="a" d="M621.12,271.05V244.64H600.7v26.41Zm-14.46-6.93V245.37h5.14v18.75Zm0,6.21v-5.46H620.4v5.48Zm13.74-6.21h-7.88V245.37h7.87Zm-19-18.75h4.51v25h-4.51Z"/><path class="a" d="M693.49,347.66h24.24V317.57H693.51Zm.73-29.35H717v28.63H694.22Z"/><path class="a" d="M695.39,345.83h20.42V319.41H695.39Zm.73-6.21h13.73v5.48H696.12Zm13.73-.73h-5.13V320.14h5.13Zm5.23,6.21h-4.5v-25h4.5Zm-11.12-25v18.75H696.1V320.14Z"/><path class="a" d="M725,347.66h24.23V317.57H725Zm.72-29.35h22.77v28.63H725.68Z"/><path class="a" d="M726.85,345.83h20.42V319.41H726.85Zm.73-6.21h13.73v5.48H727.58Zm13.73-.73h-5.13V320.14h5.13Zm5.24,6.21H742v-25h4.51Zm-11.13-25v18.75h-7.84V320.14Z"/><path class="a" d="M756.42,347.66h24.21V317.57H756.42Zm.72-29.35h22.77v28.63H757.14Z"/><path class="a" d="M758.31,345.83h20.42V319.41H758.31Zm.73-6.21h13.73v5.48H759Zm13.73-.73h-5.13V320.14h5.13ZM778,345.1H773.5v-25H778Zm-11.13-25v18.75H759V320.14Z"/><path class="a" d="M787.88,347.66h24.23V317.57H787.9Zm.73-29.35h22.76v28.63H788.61Z"/><path class="a" d="M789.77,345.83H810.2V319.41H789.78Zm.73-6.21h13.74v5.48H790.52Zm13.74-.73H799.1V320.14h5.14Zm5.23,6.21H805v-25h4.51Zm-11.13-25v18.75h-7.82V320.14Z"/><path class="a" d="M821.24,345.83h20.42V319.41H821.24Zm.72-6.21H835.7v5.48H822Zm13.74-.73h-5.14V320.14h5.14Zm5.23,6.21h-4.51v-25h4.51Zm-11.12-25v18.75H822V320.14Z"/><path class="a" d="M842.83,317.57H819.34v30.1h36.73v-30.1Zm-22.76.75h22.76v28.62H820.07Zm35.27,0V347H843.57V318.29Z"/><path class="a" d="M630.37,347.66h24.24V317.57H630.39Zm.73-29.35h22.76v28.63H631.1Z"/><path class="a" d="M632.27,345.83H652.7V319.41H632.27Zm.73-6.21h13.75v5.48H633Zm13.73-.73H641.6V320.14h5.13ZM652,345.1h-4.5v-25H652Zm-11.12-25v18.75H633V320.14Z"/><path class="a" d="M661.84,347.66h24.23V317.57H661.85Zm.72-29.35h22.77v28.63H662.58Z"/><path class="a" d="M663.73,345.83h20.42V319.41H663.73Zm.73-6.21h13.73v5.48H664.46Zm13.73-.73h-5.13V320.14h5.13Zm5.24,6.21h-4.51v-25h4.51Zm-11.13-25v18.75h-7.86V320.14Z"/><path class="a" d="M143.87,347.69h24.22v-30.1H143.87Zm.73-29.35h22.76V347H144.6Z"/><path class="a" d="M145.76,345.85h20.43V319.44H145.76Zm.73-6.21h13.74v5.49H146.49Zm13.74-.72h-5.14V320.17h5.14Zm5.23,6.21H161v-25h4.51Zm-11.12-25v18.75h-7.85V320.17Z"/><path class="a" d="M175.33,347.69h24.22v-30.1H175.33Zm.73-29.35h22.76V347H176.06Z"/><path class="a" d="M177.23,345.85h20.42V319.44H177.23Zm.73-6.21h13.73v5.49H178Zm13.73-.72h-5.14V320.17h5.14Zm5.23,6.21h-4.5v-25h4.5Zm-11.12-25v18.75H178V320.17Z"/><path class="a" d="M206.79,347.69H231v-30.1H206.81Zm.73-29.35h22.76V347H207.52Z"/><path class="a" d="M208.69,345.85h20.42V319.44H208.69Zm.72-6.21h13.75v5.49H209.41Zm13.75-.72H218V320.17h5.13Zm5.23,6.21h-4.51v-25h4.51Zm-11.12-25v18.75h-7.86V320.17Z"/><path class="a" d="M238.26,347.69h24.21v-30.1H238.26Zm.72-29.35h22.77V347H239Z"/><path class="a" d="M240.15,345.85h20.42V319.44H240.15Zm.73-6.21h13.73v5.49H240.88Zm13.73-.72h-5.14V320.17h5.14Zm5.24,6.21h-4.51v-25h4.51Zm-11.13-25v18.75h-7.84V320.17Z"/><path class="a" d="M292.05,345.85V319.44H271.61v26.41Zm-19.68-6.21h13.69v5.49H272.32Zm13.73-.72h-5.18V320.17h5.14Zm5.23,6.21H286.8v-25h4.51Zm-11.12-25v18.75h-7.87V320.17Z"/><path class="a" d="M417.34,368.45h0a3,3,0,0,1-2.85,2h-2.08v-3.89h1.54c1,0,1.32.1,1.71,1.22h0v-2.91h0c-.4,1.14-.73,1.37-1.71,1.37h-1.54v-3.71h1.84a2.81,2.81,0,0,1,2.75,1.78h0l-.43-2.2a1.39,1.39,0,0,1-.67.1h-5.67v0c.58.28.7.71.7,1.52v5.47c0,.81-.12,1.24-.7,1.52v0h6.72Z"/><path class="a" d="M421,370.75c-.57-.28-.69-.71-.69-1.52v-2.66h4.53v2.66c0,.81-.13,1.24-.7,1.52v0H427v0c-.57-.28-.69-.71-.69-1.52v-5.47c0-.81.12-1.24.69-1.52v0h-2.85v0c.57.28.7.71.7,1.52v2.47h-4.53v-2.47c0-.81.12-1.24.69-1.52v0h-2.85v0c.57.28.69.71.69,1.52v5.47c0,.81-.12,1.24-.69,1.52v0H421Z"/><path class="a" d="M434.83,368.28h0c-.72,1.38-1.43,2.18-2.88,2.18h-1.8v-6.7c0-.81.12-1.24.7-1.52v0H428v0c.57.28.7.71.7,1.52v5.47c0,.81-.13,1.24-.7,1.52v0h6.46Z"/><path class="a" d="M442.09,370.9a3.2,3.2,0,0,0,3.39-2.57l-.06,0a2.8,2.8,0,0,1-2.84,1.87c-1.65,0-3-1.4-3-3.79s1-4,2.87-4c1.3,0,2.3,1,2.83,2.47h0l-.09-2.75a1.06,1.06,0,0,1-.8.43,10.27,10.27,0,0,0-2-.43,4.36,4.36,0,0,0-4.43,4.29v.15A4.11,4.11,0,0,0,442.09,370.9Z"/><path class="a" d="M447.48,370.75a1,1,0,0,1-.62-.86,2,2,0,0,1,.2-.79l.46-1.09H451l.6,1.35a1.65,1.65,0,0,1,.2.72c0,.29-.2.5-.55.66v0h2.95v0c-.46-.26-.62-.56-1-1.35l-3.38-7.31h0l-3.15,7.08a3.13,3.13,0,0,1-1.14,1.58v0h2Zm1.74-6.65,1.64,3.6h-3.19Z"/><path class="a" d="M456.69,370.75a1.7,1.7,0,0,1-.94-1.79v-5.91l3.42,7.86h.05l3.22-7.86v6.16c0,.81-.2,1.26-.78,1.54v0h3v0a1.46,1.46,0,0,1-.79-1.54v-5.45c0-.81.12-1.24.69-1.52v0h-2.14l-2.66,6.45L457,362.22h-2.29v0c.57.28.69.71.69,1.52V369a1.71,1.71,0,0,1-.91,1.75v0h2.21Z"/><path class="a" d="M468.72,370.75a1.25,1.25,0,0,1-1-1.44v-2.08h1.75c1.9,0,3.23-.86,3.23-2.51s-1.33-2.5-3.25-2.5h-3.89v0c.57.28.7.71.7,1.52v5.47c0,.81-.13,1.24-.7,1.52v0h3.15Zm-1-8.21h1.35a2.19,2.19,0,0,1,0,4.37h-1.35Z"/><path class="a" d="M473.94,363.76v3.7c0,2.26,1.33,3.43,3.54,3.43a3.13,3.13,0,0,0,3.29-3.43V364a1.69,1.69,0,0,1,.9-1.74v0h-2.21v0a1.7,1.7,0,0,1,.94,1.78v3.4a2.57,2.57,0,0,1-2.64,2.88c-1.61,0-2.36-1.09-2.36-2.93v-3.62c0-.8.11-1.23.69-1.51v0h-2.85v0C473.82,362.52,473.94,363,473.94,363.76Z"/><path class="a" d="M483.19,370.47a16,16,0,0,0,2.14.43c1.56,0,3-.8,3-2.5,0-1.93-1.58-2.31-2.95-2.71-1-.3-1.94-.65-1.94-1.71a1.54,1.54,0,0,1,1.47-1.61h.18c1.28,0,2.14,1,2.76,2.21h0l0-2.48a1,1,0,0,1-.72.4,13.07,13.07,0,0,0-2-.4,2.53,2.53,0,0,0-2.8,2.43c0,1.69,1.29,2.14,2.53,2.52s2.33.66,2.33,1.86a1.68,1.68,0,0,1-1.85,1.71c-1.22,0-2.36-.92-3.08-2.47h0l.16,2.74A1.13,1.13,0,0,1,483.19,370.47Z"/><path class="a" d="M498.62,368.28h0c-.72,1.38-1.43,2.18-2.88,2.18h-1.8v-6.7c0-.81.13-1.24.7-1.52v0h-2.86v0c.57.28.7.71.7,1.52v5.47c0,.81-.13,1.24-.7,1.52v0h6.46Z"/><path class="a" d="M500.82,370.75a1,1,0,0,1-.61-.86,2,2,0,0,1,.2-.79l.46-1.09h3.48l.61,1.35a1.8,1.8,0,0,1,.2.72c0,.29-.2.5-.55.66v0h2.94v0c-.46-.26-.62-.56-1-1.35l-3.38-7.31h-.05L500,369.17a3.08,3.08,0,0,1-1.14,1.58v0h2Zm1.74-6.65,1.64,3.6H501Z"/><path class="a" d="M508.19,363.76v3.7c0,2.26,1.33,3.43,3.54,3.43a3.13,3.13,0,0,0,3.29-3.43V364a1.7,1.7,0,0,1,.89-1.74v0h-2.2v0a1.7,1.7,0,0,1,.94,1.78v3.4a2.57,2.57,0,0,1-2.64,2.88c-1.61,0-2.36-1.09-2.36-2.93v-3.62c0-.8.12-1.23.69-1.51v0h-2.85v0C508.07,362.52,508.19,363,508.19,363.76Z"/><path class="a" d="M517.44,370.47a16.38,16.38,0,0,0,2.14.43c1.56,0,3-.8,3-2.5,0-1.93-1.59-2.31-3-2.71-1-.3-1.94-.65-1.94-1.71a1.54,1.54,0,0,1,1.47-1.61h.18c1.31,0,2.14,1,2.76,2.21h0l0-2.48a1,1,0,0,1-.73.4,13.07,13.07,0,0,0-2-.4,2.53,2.53,0,0,0-2.8,2.43c0,1.69,1.29,2.14,2.53,2.52s2.33.66,2.33,1.86a1.67,1.67,0,0,1-1.85,1.71c-1.22,0-2.36-.92-3.08-2.47h0l.16,2.74A1.09,1.09,0,0,1,517.44,370.47Z"/><path class="a" d="M524.86,370.75a.93.93,0,0,1-.61-.86,2,2,0,0,1,.2-.79l.46-1.09h3.48l.61,1.35a1.79,1.79,0,0,1,.19.72c0,.29-.19.5-.55.66v0h3v0c-.46-.26-.63-.56-1-1.35l-3.38-7.31h-.05L524,369.16a3.13,3.13,0,0,1-1.15,1.58v0h2Zm1.75-6.65,1.62,3.61h-3.18Z"/><path class="a" d="M534.07,370.75a1.71,1.71,0,0,1-.94-1.79v-5.82l6.12,7.71h.18V364a1.71,1.71,0,0,1,.91-1.74v0h-2.22v0a1.68,1.68,0,0,1,1,1.78v4.29l-4.78-6.09h-2.22v0c.58.28.7.71.7,1.52V369a1.72,1.72,0,0,1-.91,1.75v0h2.2Z"/><path class="a" d="M543,370.75a1.71,1.71,0,0,1-.94-1.79v-5.82l6.12,7.71h.18V364a1.71,1.71,0,0,1,.91-1.74v0h-2.22v0c.64.26,1,.83,1,1.78v4.29l-4.77-6.09H541v0c.57.28.7.71.7,1.52V369a1.73,1.73,0,0,1-.92,1.75v0H543Z"/><path class="a" d="M557.08,368.45h0a3,3,0,0,1-2.85,2h-2.07v-3.89h1.53c1,0,1.32.1,1.71,1.22h0v-2.91h0c-.42,1.14-.73,1.37-1.71,1.37h-1.53v-3.71H554a2.8,2.8,0,0,1,2.74,1.78h0l-.43-2.2a1.39,1.39,0,0,1-.67.1H550v0c.58.28.7.71.7,1.52v5.47c0,.81-.12,1.24-.7,1.52v0h6.73Z"/><path class="a" d="M864.58,354.42V271.59H726.18V234.18h-47.6l1.65-1.44-.74-.32-2,1.76h-7l4.35-3.79-.73-.32-4.73,4.11h-7l7.06-6.14-.74-.32-7.42,6.46h-7l9.76-8.49-.73-.32-10.14,8.81h-7l12.46-10.84-.73-.33L645,234.18h-7L653.18,221l-.74-.31-15.53,13.51h-7l17.88-15.54-.74-.33L628.8,234.17h-7l20.58-17.9-.74-.32-21,18.22h-7l23.28-20.25-.74-.32-23.65,20.56h-7l26-22.6-.74-.32-26.35,22.92h-7l28.67-24.95-.74-.32-29.05,25.28h-2.57v2.23L550.9,273.68h-7l76.79-66.8-.74-.32-77.16,67.12h-7l79.49-69.16-.73-.32-79.86,69.48h-7L607.82,204l-1.07,0-80.14,69.73h-1.43L523,270.74l77-67-1.06,0-76.39,66.47-2.77-3.69,72.41-63-1.07,0-71.78,62.44-2.77-3.68,67.8-59-1.07,0-67.18,58.43-2.77-3.69,63.18-55-1.07,0-62.54,54.42-1-1.37h-4.41l61.24-53.26-1.07,0L506.38,256h-7l61.51-53.51-1.07,0L498.28,256h-7l61.79-53.76h-.18l-.62-.26-62.1,54h-7l64.34-56-.76-.3L482,256h-7l66.85-58.16-.77-.29L473.94,256h-7l69.32-60.3-.78-.29L465.82,256h-7l71.73-62.39-.79-.28L457.7,256h-7l74.08-64.43-.79-.27L449.59,256h-7l76.35-66.42-.8-.26L441.48,256h-7L513,187.65l-.81-.25L433.37,256h-7L507,185.83l-.83-.25L425.25,256h-7l82.64-71.89-.85-.22L417.14,256h-7l84.47-73.49-.85-.2L409,256h-7l86.13-74.92-.91-.18L400.92,256h-7l87.44-76.07-1-.14L392.8,256h-6.05l-16.88,17.7h-4.41L474,179.25c-.36,0-.72,0-1.07,0L364.36,273.68h-7l107.76-93.76-1.37.24L356.23,273.68h-7l104.91-91.27-1.64.47-104.38,90.8h-7l100.37-87.32-1.84.64L340,273.68h-7l94.47-82.19-2,.78L331.9,273.69h-7l87.39-76-2.14.91L323.8,273.68h-7L396,204.75l-2.3,1-78,67.89h-4.14v-2.09h-.48l67.55-58.76L376.13,214,310,271.59H303.2v-.21l65.55-57-1-.06L303.2,270.44v-6.12L361.08,214l-1.06,0L303.2,263.36v-4.92h-1.38l51.41-44.71h-1.09l-51.42,44.71H295.9v-1.92l49.23-42.85-1.13,0-48.1,41.88v-6.1l40.72-35.43-1.2.09L295.9,248.52v-6.09L327,215.34l-1.47.31L295.9,241.46v-6.1l19.68-17.1-1.67.49-18,15.65v-6.09l6.89-6-1.84.63-5.05,4.41V204.78H135.28V354.42H123.42v14.73l26.52,15H175.3l41,22.76h24.18l24.71,13.8.21.11H621l254.75-23.19.83-.08V354.42ZM268.15,411.87v-3.79h-6.52v-3.79H255.1v-3.8h-6.53V396.7h-5.38V376.3h41.27V419h-3.25v-3.3h-6.53v-3.8Zm-58.71-19v-3.78h-6.53v-3.79h-6.53v-3.8h-6.52v-3.81h-6.53V376.3h56.91v20.4H216v-3.79ZM144.2,370.15v-3.8h-6.53v-3.78h-6.53v-3.8h-5.91v-2.51H795.06v19.32H183.33V374H150.72v-3.8ZM257.94,259V248.32h6.93V259Zm7.65-10.72h4.51V259h-4.51Zm5.24,0h3.94V259h-3.94Zm-13.62-.72V259h-1V246.69h20.21V259h-1V247.59Zm20-.92H287.5V259H277.19Zm0-.73H255.52V259h-6.46v-13.1H227.39V259h-6.46V245.94H199.26V259h-6.48V245.94H171.12V259h-6.46V245.94H143V259H137.1V206.59h157V259h-5.87v-13.1ZM229.81,259V248.32h6.92V259Zm7.65-10.72H242V259h-4.53Zm5.24,0h3.94V259H242.7Zm-13.63-.72V259h-.95V246.69h20.21V259h-1V247.59ZM201.69,259V248.33h6.92V259Zm7.66-10.71h4.5V259h-4.52Zm5.23,0h3.94V259h-3.94ZM201,247.61v11.44h-1V246.69h20.22V259h-1V247.59Zm-27.38,11.44V248.34h6.93v10.71Zm7.66-10.71h4.5v10.71H181.2Zm5.24,0h3.93v10.71h-3.93Zm-13.63-.72v11.44h-1V246.69h20.22V259h-1V247.59Zm-23.12,11.44h-4.28V248.35h6.93v10.71Zm3.38-10.71h4.51v10.71h-4.55Zm5.23,0h3.94v10.71h-3.94Zm-13.62-.73v11.45h-1V246.69H164V259h-1V247.59Zm449.49-3.49H596v4.51l-28.86,25h-7ZM328.69,376.3V419H287.43V376.3Zm279.72,8.83a10.78,10.78,0,0,1-1.88-.37l-.67-.19.22.66a7.63,7.63,0,0,1,.34,1.63L602,390.72a13.68,13.68,0,0,1-1.57-.15l-.63-.1.23.59a7.21,7.21,0,0,1,.31,1.1l-3.12,2.72v-5.75l14.74-12.82h.86a8.29,8.29,0,0,1,1.41,3.78Zm5.75-3.79a4.59,4.59,0,0,1-.72,2.15,4.5,4.5,0,0,1-3.68,1.68Zm-7.77,6.76a2.87,2.87,0,0,1-.6,1.45,3.65,3.65,0,0,1-2.33,1.1Zm-7.16,7.39a3.18,3.18,0,0,1-1.53.17l2.75-2.39a2.2,2.2,0,0,1-1.22,2.22Zm-51.87-1.26a4.32,4.32,0,0,0-.13,1.29c0,.38,0,.73-.06,1l-1.78,1.55a13,13,0,0,1-5.72-.78l10.29-9v5.77h0a2.59,2.59,0,0,0-2-.55A.93.93,0,0,0,547.36,394.23Zm-10.86-1.09L550,381.42v5.76l-11.12,9.67a6.08,6.08,0,0,1-2.34-3.71Zm16.42-2.05h0c1-.62,3.09.6,5.14,1.77a30.33,30.33,0,0,0,3.33,1.77,47.73,47.73,0,0,1-1,13.16A61.83,61.83,0,0,0,559.28,419h-6.36Zm9.3,7.55,6.46-5.62c.3,1.51.59,2.87.85,4.08.06.28.12.53.17.8l-8.05,7a46.83,46.83,0,0,0,.57-6.26Zm-1.08,9.26c.1-.53.18-1.06.27-1.58l8.5-7.4c.39,1.9.71,3.48,1,4.94L560.36,413c.22-1.79.5-3.46.78-5.1Zm-.92,6.43,10.8-9.4a40.38,40.38,0,0,1,.43,5.39l-10,8.65H560a45.26,45.26,0,0,1,.24-4.65Zm11,3.15-1.71,1.5h-6.63l8.56-7.45c0,1.67-.07,3.58-.22,5.94Zm-.08,1.29V419h-.23Zm-.91-21.8c-.28-1.29-.58-2.72-.91-4.35l.6-.48c2.14-1.74,7.05-5.77,8-5.77h0c1,.86,1.33,2.67,1.72,4.41a10.89,10.89,0,0,0,1.41,4.12c1,1.49,2.77,1.05,4.19.69a7.18,7.18,0,0,1,1.79-.27,1.8,1.8,0,0,0,1.09,1c1.07.33,2.31-.54,3.51-1.37.83-.56,1.76-1.21,2.21-1.08.07,0,.17.07.27.27l0,0V419H571.88c.69-10.87.21-13.19-1.64-22Zm24-3.67c-.05,0-.07-.1-.13-.11-.78-.22-1.71.43-2.8,1.19l-.43.28,3.35-2.91Zm-5.85,2.32a1.25,1.25,0,0,1-.69-.77l-.07-.17-.18,0a5.15,5.15,0,0,0-2.29.26,4.66,4.66,0,0,1-2.74.16l11.82-10.29v5.76Zm-6.67-1.16a11.09,11.09,0,0,1-1.29-3.83c0-.23-.1-.46-.15-.69l14-12.14v5.76Zm15.52-6.53v-5.78l6.73-5.85h6.62Zm0-7V376.3h5.34Zm-3-4.36L580,388.93a6.37,6.37,0,0,0-1.52-3.1c-.33-.32-1-.19-2.14.5l11.55-10h6.3Zm-32,20.85c0-1,0-2-.13-3.11v-.22l-.2-.08a16.13,16.13,0,0,1-1.52-.73l19.54-17h6.62Zm-2.72-4.61c-.37-.2-.73-.4-1.08-.61a27.24,27.24,0,0,0-3-1.58l16.49-14.35h6.62Zm-5.14-2.49a2.49,2.49,0,0,0-1.43,0v-4.56l10.94-9.52h6.63Zm-1.43-5.73v-5.77l2.93-2.55h6.6Zm0-7v-1.34h1.54Zm-3,2.57-13.75,12a3.85,3.85,0,0,0-1.52-2.41,4.31,4.31,0,0,0-2.11-.19l15.26-13.28H550Zm-19.34,9.86c-.33.12-.65.26-1,.39-1,.43-1.82.78-2.29.51s-.6-.85-.71-1.92v-.2l-.17-.09a1.17,1.17,0,0,1-.45-.46l13.79-12h6.62Zm-4.92-2.7a16.48,16.48,0,0,1,.23-4.62c.07-.53.13-1,.18-1.49l5.7-5h6.63Zm.13-7.07c-.89-.9-2.72-1-4.71-1h-.74l3.43-3h6.62Zm-6.74-1.12c-1-.09-1.83-.27-2.14-.73a1.48,1.48,0,0,1,0-1.36,3.76,3.76,0,0,1,.36-.79h5Zm-2.74-.33c.72,1.08,2.68,1.12,4.76,1.16,1.74,0,3.69.07,4.32.83-.05.57-.13,1.18-.22,1.81-.36,2.65-.76,5.64.76,6.65.15,1.24.49,2,1,2.3.79.46,1.78,0,2.94-.47,1.36-.59,2.91-1.25,4.42-.72.72.43,1,1.43,1.31,2.57.76,2.74,1.77,6.52,10.61,5.87,1.61-.25,1.64-2.08,1.65-3.29a3.8,3.8,0,0,1,.09-1.06c.05-.16.12-.18.15-.19.34-.12,1.13.34,1.71.68l.05,0v24H508.68V376.3h7.9a3.77,3.77,0,0,0-.28.57,2.09,2.09,0,0,0,.05,2ZM505.73,419H464.45V376.3h41.27Zm-44.27,0H420.18V376.3h41.27Zm-44.27,0H375.91V376.3h41.26ZM373,419H331.69V376.3H373Zm224.25-22.67a4,4,0,0,0,2.32-.15c.62-.27,2.46-1.4,1.37-4.77,2.57.31,4.43-.16,5.45-1.36a4.75,4.75,0,0,0,.62-4.39c4.27,1.07,6.27-.6,7.07-1.71,1.42-2,1.2-5-.43-7.61h24.87v41.06L620.91,419h-23.7Zm44.24-20h41.27v37l-41.27,3.76ZM293.21,347H270.44V318.34h22.77Zm12.46-28.61V347H293.93V318.32h10.6v0Zm.78,0h1.07V347h-1.07ZM283,281h22.74v28.63H283Zm23.49,0h1.08v28.61h-1.08Zm64.2-5.46,14.92-15.63-7.47,18.5h-10.9l2.73-2.87Zm225-33.23V236H724.37v37.44H862.76v81H610a3,3,0,0,0,.25-1.63c-.27-1.43-1.66-2.35-3-3.24a6.13,6.13,0,0,1-2.17-1.9h18.06V317.57H598.92v0h-1.1v-.55h-2.2v-6.24h2.2v-.55h1.1v.07h36.73V280.22H597.82v-.54h-2.21v-6.27h2.21v-.53h25.23V242.79H598.82v0h-1v-.55ZM325.32,278.88v68.06h-9.77V278.88Zm40.64,0-2.7,15.27-5.71,9.07V278.88Zm-9.14,25.5-3.42,5.44h1.31l-.7,1.08h2.65v21.67h-.86v3.33h.86v2.61h0v8.42H347V278.88h9.77Zm35.24,5.42h67v37.73h28.31v6.89H391.1v-15.9h0v-3.35h0V323h0V310.9h.78l-.79-1.38v-1.33Zm153.72-30.92v45.8a8.65,8.65,0,0,0-4.41.95,5.84,5.84,0,0,1-3.52.74h-.32a4.53,4.53,0,0,0-2,.43v-17h7.7L536,298.2V278.88Zm76.51-6.73H599.61V243.53h22.68Zm-23.49,0h-1V243.54h1Zm36.11,37.44H612.15V281h22.76Zm-23.49,0H599.64V281h11.78Zm-12.51-.06h-1.1V281h1.1ZM488.09,332h4.05v22.38h-4.05Zm4.78,0h4v22.38h-4Zm4.77,0h4.07v22.38h-4Zm4.78,0h4v22.38h-4Zm4.77,15.49h20.89l.9.78c1.5,1.29,2.49,2.21,2.19,3-1.39-.29-6.73-1.29-8.29.3a1.66,1.66,0,0,0-.39,1.62,2.71,2.71,0,0,0,.51,1.21H507.2ZM526.47,345a2.75,2.75,0,0,0,.89,1.8h-.89Zm4.85-11.24h.13l.09-.09a9.06,9.06,0,0,0,1.71-2.85c.85-1.91,1.71-3.72,4.22-3.72h.27a6.72,6.72,0,0,0,3.89-.8,12.37,12.37,0,0,1,1.42-.57l-14.82,12.9c-.18-1.51-.3-2.91.43-3.79a3.69,3.69,0,0,1,2.67-1.07ZM527.86,344a7.06,7.06,0,0,0,.5-4.28l16.44-14.31a10.76,10.76,0,0,1,3.78.5.52.52,0,0,0,.49-.12c.29-.3.15-.86-.14-2-.12-.48-.24-1-.36-1.62l12.71-11.06c1.85-.08,3.32-.46,4.23-2.46.67-.57,1.61-.36,2.69-.13a10.37,10.37,0,0,0,2,.28l.15,0,.5-.21L527.7,346.1a1.86,1.86,0,0,1-.51-1.06,1.2,1.2,0,0,1,.57-.86Zm23.53-30.92a15.42,15.42,0,0,1,8.46-2l-11.48,10c-.4-2.77-.25-6.12,3-8Zm28.48-5.46-48.4,42.11a12.74,12.74,0,0,0-2-2q-.6-.51-1.14-1l44.88-39c2.39-.7,5.1-1,6.7-.07ZM589,320.41l.43-.14-39.27,34.15h-6.62L582.3,320.7a1,1,0,0,0,.71.77C584.31,321.86,586.68,321.13,589,320.41ZM601.4,332c1.46.57,1.55,1.67,1.63,3,0,.41.07.81.13,1.22l-21,18.22h-6.62Zm-17.81,22.44,19.81-17.23a3.16,3.16,0,0,0,2.14,1.76,1.82,1.82,0,0,1,.93,1.32l-16.26,14.14ZM607,339.61h8.26v5.48h-9.41c.84-1.61,1.81-3.85,1.15-5.47Zm9-19.48h4.51v25H616Zm-.72,18.75h-5.14V320.14h5.14Zm-5.88,0h-2.83a2.7,2.7,0,0,0-.72-.59c-2-.61-2-1.87-2.14-3.33s-.2-2.95-2.19-3.68V320.14h7.86Zm-35.2,15.54h-6.62l30.94-26.91a8.13,8.13,0,0,1,1.55,3.89l0,.27.22,0Zm-8,0h-6.63l34.46-30c0,1.18.15,1.48.86,1.48h0a3.75,3.75,0,0,1,3,.92ZM596,318.86v6.36a4.58,4.58,0,0,0-1.17,0h0c0-.21,0-.72-.07-1.4s-.06-2-.15-3.72a1.15,1.15,0,0,0-.33-1.11,1.45,1.45,0,0,0-.29-.11ZM593.85,320c.07,1.41.11,2.45.13,3.23l-35.8,31.15h-6.62l40-34.75c1.05-.27,2-.4,2.26-.15,0,0,.12.13.06.53Zm-11.55-1.69c0,.41-.09.83-.1,1.25l-40.06,34.82h-6.63L580,315.75a9.38,9.38,0,0,0,1.93,1.15l.43.22a7.53,7.53,0,0,1-.1,1.25ZM579.48,315h0l-45.35,39.42h-6.62l2.91-2.54.86.18.23.05.15-.2a1.51,1.51,0,0,0,.23-1.32l48.64-42.31a3.53,3.53,0,0,1,.85,2.62c-1.51,2.21-2.14,3.27-1.93,4.13Zm-56.26,38.17v-.07a.92.92,0,0,1,.21-1c.81-.84,3.47-.76,5.83-.43l-3.17,2.74h-2.2A3.15,3.15,0,0,1,523.22,353.14Zm86.31-.22a2.46,2.46,0,0,1-.33,1.5h-1.57l1.86-1.61c0,.05,0,.08,0,.12Zm-3.29,1.5h-6.62l6-5.18a15.4,15.4,0,0,0,1.28.91,9.26,9.26,0,0,1,2.22,1.82Zm-8,0h-6.62l14.86-12.93a14.87,14.87,0,0,1-1.6,3.92,7.49,7.49,0,0,0-.62,1.35,2.08,2.08,0,0,0,.63,1.87Zm6.72-7.5a7.47,7.47,0,0,1,.54-1.1h15.74V319.41H600.81v11.66h-.06a9.31,9.31,0,0,0-1.14-3.23h0v-9.53H622.4v28.63H605Zm-6-20.1a5.57,5.57,0,0,0-1.1-.95v-7.55h1.1ZM595,271.58l1-.86v.86Zm1-8.87-12.6,11h-7L596,256.61Zm0,1v6.09l-2.08,1.82h-.12v.1l-2.28,2h-7Zm-2.2,9v1h-1.18Zm2.2,8.84V309h-2.2v9.82c-.93-.31-2.57.13-5,.91l-.27.08V278.88h5.31v2.62ZM587.75,320c-1.79.55-3.61,1.05-4.55.75-.48-.11-.31-1.44-.21-2.32a4.47,4.47,0,0,0,0-1.71l0-.14-.72-.36c-1.23-.62-2-1-2.09-1.45s.64-1.79,1.87-3.55l.06-.08V311a4.13,4.13,0,0,0-1.57-3.91,5.31,5.31,0,0,0-2.57-.79V278.88h9.8Zm-10.52-13.68a18.9,18.9,0,0,0-7.1,1.71,9.46,9.46,0,0,1-1.76-.26c-.29-.06-.59-.13-.89-.18V278.88h9.75Zm-10.49,1.22a2.34,2.34,0,0,0-1.78.6l-.08.12c-.93,2.1-2.52,2.11-4.94,2.12-1,0-2,.06-3,.16V278.88h9.8Zm-10.52,3.09a14.38,14.38,0,0,0-5.19,1.83c-4.93,2.86-3.5,8.68-2.81,11.47.11.43.23.92.27,1.2a12.59,12.59,0,0,0-2-.37V278.88h9.75Zm-21.44,16.71a5.11,5.11,0,0,0-1.11,1.21V309.8h1.11Zm-1.84,2.48c-.11.24-.23.47-.34.71-.23.52-.47,1-.73,1.47V309.8h1.07Zm-1.8,3.21v0a5.35,5.35,0,0,0-1,.25V309.8h1.07Zm-1.8.46a3.15,3.15,0,0,0-1.07.77V309.8h1.07Zm-1.79,2a9.82,9.82,0,0,0,0,3.55c.2,1.62.4,3.29-.3,4.58a1.85,1.85,0,0,0-.78,1.38V309.8h1.07v25.7Zm-1.81,11.33h-1.07v-37h1.07Zm-1.8,0h-1.07v-37h1.07Zm-1.8,0h-1.09v-37h1.09Zm-1.82,0h-1.07v-37h1.07Zm-1.8,0h-1.07v-37h1.07Zm-1.81,0h-1.06v-37h1.06Zm-1.79,0h-1.08v-37h1.08Zm-1.81,0H512v-37h1.07Zm-1.8,0h-1.05v-37h1.08Zm-1.8,0h-1.07v-37h1.07Zm-1.8,0h-.52V331.32h-.56V309.8h1.08Zm-1.81-15.49h-1.07V309.8h1.07Zm-1.8,0H503V309.8h1.07Zm-1.8,0h-1.07V309.8h1.07Zm-1.8,0h-1.06V309.8h1.07Zm-1.8,0h-1.08V309.8h1.09Zm-1.8,0h-1.08V309.8h1.08Zm-1.81,0H494V309.8h1.07Zm-1.8,0h-1.08V309.8h1.08Zm-1.8,0h-1.07V309.8h1.07Zm-1.8,0h-1.08V309.8h1.08Zm-1.81,0h-.52v15.49h-.55v-37h1.07Zm-1.8,15.49H485v-37h1.07Zm-1.8,0H483.2v-37h1.08Zm-1.81,0H481.4v-37h1.07Zm-1.8,0H479.6v-37h1.07Zm-1.8,0H477.8v-37h1.07Zm-1.81,0H476v-37h1.07Zm-1.79,0h-1.08v-37h1.08Zm-1.81,0h-1.07v-37h1.08Zm-1.8,0H470.6v-37h1.07Zm-1.8,0h-1.08v-37h1.08Zm-1.8,0H467v-37h1.08Zm-1.81,0h-1.07v-37h1.07Zm-1.8,0h-1.07v-37h1.1Zm-1.8,0h-1.13v-37h1.13Zm-1.86,0h-1v-37h1ZM362.07,353h-2.23v-1.28h2.23Zm0-2h-2.23v-1.28h2.23Zm0-2h-2.23v-1.28h2.23Zm0-2h-2.23v-8.42h2.23Zm-5.41,4H311v-1.28h45.66Zm0,.73V353H311v-1.28Zm0,2v.72H311v-.72Zm.72.73V338.52h1.72v15.9Zm2.45-.73h2.23v.72h-2.23Zm2.95.73V338.52h1.72v15.9Zm6.77-1.46h-4.31v-1.28h4.33Zm0-2h-4.31v-1.28h4.33Zm0-2h-4.31v-1.28h4.33Zm0-2h-4.31v-8.42h4.33Zm-4.31,6.76h4.33v.72h-4.33Zm5.06.72v-15.9H372v15.9Zm7.6-1.46h-5.16v-1.28h5.16Zm0-2h-5.16v-1.28h5.16Zm0-2h-5.16v-1.28h5.16Zm0-2h-5.16v-8.41h5.16Zm-5.16,6.77h5.16v.72h-5.16Zm0-15.91H357.39v-1.88h32.95v1.88h-10v16.63h-1.71V337.79ZM357.4,323.74h.81v8.83h-.81Zm2.23-12.85-.91.91v-.91Zm21.44,36.77h9.29v1.28h-9.29Zm0,2h9.29V351h-9.29Zm0,2h9.29V353h-9.29Zm9.29-4.74h-9.29v-8.41h9.29Zm-31.64-34.07,1.93-1.94h.05l1.95,1.94V323h-3.92ZM363.36,323V310.91h.57V323Zm-4.43.72h.81v8.81h-.81Zm1.53,0h.81v8.81h-.81Zm1.54,0h.8v8.81H362Zm1.53,0h.8v8.81h-.8Zm1.53,0h.8v8.81h-.8Zm1.53,0h.81v8.81h-.81Zm1.53,0h.8v8.81h-.8Zm1.54,0h.8v8.81h-.8Zm1.2-12.83h.59V323h-.59Zm.33,12.86h.8v8.78h-.79Zm1.52,0h.81v8.78h-.81Zm1.54,0h.81v8.78h-.81Zm1.53,0h.8v8.78h-.8Zm1.53,0h.8v8.78h-.8Zm3.06,0h.81v8.78h-.81Zm1.54,0h.8v8.78h-.81Zm1.53,0h.8v8.78h-.8Zm1.53,0h.8v8.78H385Zm1.53,0h.8v8.78h-.8Zm1.53,0h.8v8.78H388Zm1.53,0h.8v8.78h-.8Zm-9.09-.73v-10.2l1.95-2h7.94V323Zm0-11.19v-.93h.93ZM379.76,323h-.58V310.9h.58Zm-1.31-11.21-.91-.91h.91Zm-1.94-.91,1.94,1.94V323h-6.27V312.86l1.94-1.95Zm-4.31.93v-.93h.92Zm-2,0-.93-.93h.93Zm-2-.93,1.93,2V323h-5.46V312.86l1.95-1.94Zm-3.5.91v-.91h.91Zm-2,0-.92-.91h.91Zm-5.24-.9H358V323h-.59Zm32.95,22.4v1.86H356.55v-1.88h33.8Zm-9.3,20.39h9.29v.72h-9.29Zm9.54-43.52H377.19l6-12.94Zm-14.2,0H355.33L364,296.81h18.58Zm-30.1,36.76h-9.76V278.88h9.77Zm-10.5,0H326V278.88h9.77Zm20.86.73V349H311v-1.29Zm239.32-92-20.71,18h-7L596,249.55Zm-2.2,22.49H527.9l-2-2.66h67.88Zm-58.53.73V297l-1.78-2.84-5.13-15.31Zm-2.32,15.79,9,14.4H392.45l-8.67-14.4ZM390.35,307v1.28l-6.89-12-.11-.18H363.6l-8.44,13h-.46l9.2-14.62,2.75-15.38h11.43l4.75,15.38Zm-24-28.83H311.54V275.5h57.38ZM309.33,318.9h2.21V309h-2.21V281.49h2.21v-2.61h3.28v68.06h-5.49Zm553.43,37.35h12v1.67h-79v-1.67Zm9.57,39.82H795.79v-2.22h79v2Zm-76.54,6.59h4.28l-4.28.38Zm0-.73v-2.2h36.39L808,401.93Zm0-2.92V396.8h68.57L840.15,399Zm0-5.87v-2.21h79v2.21Zm0-2.94V388h79v2.21Zm0-2.93v-2.21h79v2.21Zm0-8.08h79v2.23h-79Zm0-.73v-2.21h79v2.21Zm0-2.94v-2.2h79v2.2Zm0-2.93v-2.21h79v2.21Zm0-2.93v-2.21h79v2.21Zm0-2.94v-2.21h79v2.21Zm0-2.93v-2.21h79v2.21Zm0-2.94v-2.2h79v2.2Zm-.73,42.26L774.19,405V376.3h20.87Zm-23.83,2.17L729.91,409V376.3h41.32Zm-44.27,4-41.27,3.76V376.3H727Zm68.83-25v-2.21h79v2.21ZM527.58,278.92l5.06,15H383.42l-4.69-15.22,8.19-20.3.61-.64H511l13.3,17.69H525Zm-217.86-5.48v6.27h-2.2v.55h-1.08v0H282.21v30.06h25.31v.55h2.2v6.23h-2.2v.55h-1.07v0H269.72v30.09h36.73v0h3.81v6.76H137.1V272.88H301.38v.56Zm-8.34-1.29H137.1V270.7H301.38Zm292.41-34.79v6.1L559,273.68h-7ZM301.38,260.27V270H137.1V259.76h157v.52ZM241.13,405.18l-.2-.12H216.74l-41-22.76H150.42l-25.19-14.21v-8.6h5.19v3.8h6.52v3.79h6.53v3.79H150v3.8H182.6v3.79h6.53v3.82h6.53v3.79h6.54v3.79h6.52v3.79h6.53v3.8h32.61v3.79h6.52V405h6.52v3.8h6.52v3.79H274v3.8h6.55V419H265.84Z"/></svg>